<svg aria-hidden="true" style="position: absolute; width: 0; height: 0; overflow: hidden;" version="1.1" xmlns="http://www.w3.org/2000/svg" xmlns:xlink="http://www.w3.org/1999/xlink">
<defs>
<symbol id="icon-github" viewBox="0 0 32 32">
<path d="M16 0.396c-8.84 0-16 7.164-16 16 0 7.071 4.584 13.067 10.94 15.18 0.8 0.151 1.093-0.344 1.093-0.769 0-0.38-0.013-1.387-0.020-2.72-4.451 0.965-5.389-2.147-5.389-2.147-0.728-1.847-1.78-2.34-1.78-2.34-1.449-0.992 0.112-0.972 0.112-0.972 1.607 0.112 2.451 1.648 2.451 1.648 1.427 2.447 3.745 1.74 4.66 1.331 0.144-1.035 0.556-1.74 1.013-2.14-3.553-0.4-7.288-1.776-7.288-7.907 0-1.747 0.62-3.173 1.647-4.293-0.18-0.404-0.72-2.031 0.14-4.235 0 0 1.34-0.429 4.4 1.64 1.28-0.356 2.64-0.532 4-0.54 1.36 0.008 2.72 0.184 4 0.54 3.040-2.069 4.38-1.64 4.38-1.64 0.86 2.204 0.32 3.831 0.16 4.235 1.020 1.12 1.64 2.547 1.64 4.293 0 6.147-3.74 7.5-7.3 7.893 0.56 0.48 1.080 1.461 1.080 2.96 0 2.141-0.020 3.861-0.020 4.381 0 0.42 0.28 0.92 1.1 0.76 6.401-2.099 10.981-8.099 10.981-15.159 0-8.836-7.164-16-16-16z"></path>
</symbol>
<symbol id="icon-telegram" viewBox="0 0 28 28">
<path d="M18.578 20.422l2.297-10.828c0.203-0.953-0.344-1.328-0.969-1.094l-13.5 5.203c-0.922 0.359-0.906 0.875-0.156 1.109l3.453 1.078 8.016-5.047c0.375-0.25 0.719-0.109 0.438 0.141l-6.484 5.859-0.25 3.563c0.359 0 0.516-0.156 0.703-0.344l1.687-1.625 3.5 2.578c0.641 0.359 1.094 0.172 1.266-0.594zM28 14c0 7.734-6.266 14-14 14s-14-6.266-14-14 6.266-14 14-14 14 6.266 14 14z"></path>
</symbol>
<symbol id="icon-linkedin" viewBox="0 0 20 20">
<path d="M10 0.4c-5.302 0-9.6 4.298-9.6 9.6s4.298 9.6 9.6 9.6 9.6-4.298 9.6-9.6-4.298-9.6-9.6-9.6zM7.65 13.979h-1.944v-6.256h1.944v6.256zM6.666 6.955c-0.614 0-1.011-0.435-1.011-0.973 0-0.549 0.409-0.971 1.036-0.971s1.011 0.422 1.023 0.971c0 0.538-0.396 0.973-1.048 0.973zM14.75 13.979h-1.944v-3.467c0-0.807-0.282-1.355-0.985-1.355-0.537 0-0.856 0.371-0.997 0.728-0.052 0.127-0.065 0.307-0.065 0.486v3.607h-1.945v-4.26c0-0.781-0.025-1.434-0.051-1.996h1.689l0.089 0.869h0.039c0.256-0.408 0.883-1.010 1.932-1.010 1.279 0 2.238 0.857 2.238 2.699v3.699z"></path>
</symbol>
</defs>
</svg>
